<svg width="150" height="40" viewBox="0 0 150 40" fill="none" xmlns="http://www.w3.org/2000/svg">
<g clip-path="url(#clip0_2281_258)">
<path d="M34.033 22.4069L34.0903 22.3496C33.6892 21.9484 33.5173 21.6619 33.4027 21.1461C31.3974 20.6304 29.2774 19.9427 27.1002 19.4269L27.0429 19.4842C26.6991 19.4269 23.6624 19.5416 23.6624 18.9112C23.6624 18.7966 23.8343 18.3954 23.8343 18.2808C23.8343 18.1662 23.376 17.765 23.2614 17.765C23.1468 17.765 22.9176 17.937 22.803 17.937C22.6884 17.937 22.5738 17.8797 22.5165 17.8224V17.0774C22.5165 16.7335 22.6884 16.1032 22.6884 15.8166C22.6884 15.702 22.6311 15.5874 22.6311 15.5301C22.6311 15.4155 22.6884 15.2436 22.6884 15.1863C22.6884 15.0716 22.5738 14.8424 22.5738 14.7278C22.5738 14.6132 22.6884 14.2693 22.6884 14.1547C22.6884 14.0401 22.5738 13.7536 22.5738 13.6963C22.5738 13.639 22.6311 13.4097 22.6311 13.2951C22.5738 13.2378 22.4592 13.2951 22.4592 13.1805C22.4592 13.1232 22.5738 12.9513 22.5738 12.7794C22.5738 12.2636 22.4019 12.0344 22.4019 11.6332C22.4019 11.5186 22.4592 11.6332 22.4592 11.5186C22.4592 11.404 22.3446 11.404 22.3446 11.2894C22.3446 11.1748 22.2874 10.8883 22.2874 10.7736C22.2874 10.6017 22.3446 10.3725 22.1728 10.2579L22.2301 10.2006C22.0582 9.74212 21.9436 9.28367 21.9436 8.82522C21.9436 8.42407 22.4019 6.81949 22.4592 6.64757C22.4019 6.13181 22.4592 6.0745 22.4592 6.0172C22.2874 5.32952 21.4279 5.2149 20.9696 4.87106C21.0841 4.69914 21.0841 4.64184 21.256 4.64184C21.3706 4.64184 21.6571 4.92837 21.7717 4.92837C21.8863 4.92837 22.3446 4.06877 22.3446 3.78224L22.4592 3.20917C22.4592 2.29227 21.7144 1.6619 21.7144 1.48998C21.7144 1.03152 21.256 0.343844 20.6258 0.343844C20.5112 0.343844 20.5112 0.286537 20.3966 0.286537C20.282 0.286537 20.3966 0.343844 20.3393 0.343844C20.282 0.343844 19.9955 0.057311 19.9382 0.057311C19.8809 0.057311 19.8236 0.171924 19.709 0.171924C19.5945 0.171924 19.1934 -0.114609 19.0788 -0.114609C18.9642 -0.114609 18.5631 0.171924 18.4485 0.171924C18.334 0.171924 18.2194 0.057311 18.1621 0.057311C17.9329 0.057311 17.3026 0.515764 17.3026 0.687684C17.3026 0.802297 17.4172 0.859603 17.4172 0.91691C17.4172 0.974216 17.2453 1.08883 17.0734 1.08883C16.9589 1.08883 16.8443 1.03152 16.787 1.03152C16.5005 1.7192 16.2713 1.7192 16.2713 1.83382C16.2713 1.94843 16.3859 1.94843 16.3859 2.06304C16.3859 2.17765 16.4432 2.34957 16.4432 2.40688C16.4432 2.52149 16.2713 2.52149 16.2713 2.63611C16.2713 3.26648 16.5005 3.03725 16.9016 3.83955C16.787 4.01147 16.6724 3.95416 16.6151 3.95416C16.5005 3.95416 16.0421 3.83955 15.9275 3.83955C15.8702 3.83955 14.9535 4.64184 14.9535 4.81376C14.9535 5.38682 14.7816 5.61605 14.7816 6.0172C14.7816 6.0745 14.7243 6.0172 14.667 6.30373C14.7243 6.30373 14.7243 6.24642 14.7243 6.36104C14.7243 7.22063 13.5784 7.90831 12.6617 7.90831C12.5471 7.90831 12.6044 7.85101 12.4898 7.85101C12.3752 7.85101 11.9168 8.08023 11.8022 8.08023C11.6877 8.08023 11.6304 7.96562 11.5158 7.96562C11.5158 7.96562 9.16665 9.28367 9.16665 9.39829C9.16665 9.39829 9.7969 11.2321 9.7969 12.2063C9.7969 13.1805 10.7709 14.3267 10.7709 14.957C10.7709 15.0716 10.7709 15.0143 10.7136 15.0716C10.7709 15.1863 10.7709 15.3582 10.7709 15.4155C10.7709 15.5301 10.8282 15.7593 10.599 15.7593C10.3126 15.7593 9.10935 15.6447 8.82287 15.5874C6.53105 15.3009 4.29652 15.3582 1.9474 14.6705C0.973371 15.9885 0.0566406 15.8166 0.0566406 17.2493C0.0566406 17.8224 0.629597 19.3123 0.629597 19.4269C0.629597 19.5989 1.66092 22.3496 1.8901 23.3238C2.11928 24.2407 2.74954 25.1003 3.03601 25.9026C3.15061 26.0745 3.2652 26.1891 3.37979 26.361C4.01004 27.5072 4.41111 28.8252 5.21325 29.8567C5.32784 30.1433 6.64564 32.2636 6.64564 33.0659C6.64564 34.6132 8.02073 37.6504 8.02073 37.765C8.02073 38.1662 8.93747 40 9.68231 40C10.1407 40 11.3439 38.9685 11.3439 38.51C11.3439 38.3954 11.2866 38.5673 11.2866 38.4527C11.2866 38.3954 11.4585 38.1089 11.4585 37.9943C11.4585 37.8797 11.4012 37.8224 11.4012 37.7077C11.4012 37.5931 11.4585 37.5358 11.4585 37.4212C11.4585 36.9054 9.51042 35.6447 9.51042 34.7851C9.51042 34.6132 8.88017 32.5501 8.88017 32.5501C8.88017 32.4355 7.104 30.0287 7.104 29.8567C7.104 29.7994 6.70294 29.1691 6.70294 29.1118C6.58834 28.6533 6.01539 26.9341 6.01539 26.7049C6.01539 26.6476 5.95809 26.4756 5.95809 26.361V26.3037C5.95809 26.1891 6.01539 26.1891 6.01539 26.1318C6.01539 25.616 5.61432 25.1576 5.61432 24.9284C5.61432 24.8138 5.55702 24.6991 5.55702 24.6418C5.55702 24.5272 5.61432 24.2407 5.55702 24.0688C5.21325 23.8395 5.32784 23.3811 5.15595 23.0373C4.98407 22.6361 4.75488 22.235 4.75488 22.1777C4.75488 21.7765 3.55167 19.7708 3.55167 19.7135C3.55167 19.5989 3.49438 19.4269 3.49438 19.3123C3.49438 17.9943 5.7862 18.3954 6.24457 18.3381L8.88017 18.7393H9.7396C10.5417 18.7393 11.5158 19.1977 12.2606 19.3123C14.9535 19.8281 17.9902 20.4011 20.6831 20.9742C22.1155 21.2607 23.8343 21.6619 25.324 22.0057C25.6678 22.063 28.8764 22.2923 28.8764 23.3238C28.8764 23.9542 27.0429 23.8969 26.871 23.9542C26.7564 24.0115 26.5272 24.2407 26.4699 24.2407C26.3553 24.2407 26.4699 24.1834 26.3553 24.1834C25.7824 24.1834 24.5792 25.3295 23.2614 26.361C22.1155 27.2779 20.855 28.1948 19.8236 28.1948C19.709 28.1948 19.6518 28.1375 19.5945 28.1375C19.5372 28.1375 18.6204 28.8825 17.9902 28.8825C17.8756 28.8825 17.9329 28.8252 17.8756 28.8252C17.761 28.8252 17.5891 28.9971 17.4745 28.9971C17.3599 28.9971 16.787 28.8825 16.6724 28.8825C16.5578 28.8825 16.6151 28.9398 16.5578 28.9398C16.0421 28.9398 14.7816 28.1948 14.667 28.1948C14.667 28.1948 12.9482 28.5387 12.6044 29.341C12.6617 29.9714 12.6617 29.9714 12.6044 30.0287C12.7763 30.7736 13.0628 32.3209 14.1514 32.3209C14.5524 32.3209 18.3912 30.4871 20.1674 30.2579C20.5685 30.086 21.0268 29.5129 21.4279 29.3983C22.0009 28.9971 23.0895 28.5387 23.6624 28.1948C25.2094 27.9083 26.8137 27.2206 28.3607 27.1633C28.7045 26.9341 28.9909 26.7049 29.3347 26.4756C30.3087 25.788 31.2828 25.1576 32.1422 24.6991C32.6579 23.8395 34.0903 24.1261 34.3194 23.0373C34.033 22.8653 34.2621 22.5788 34.033 22.4069ZM18.9069 17.2493C18.5058 17.2493 18.6204 15.8739 17.0162 15.8739C16.787 15.8739 16.6151 16.0458 16.4432 16.0458H15.6984C15.24 16.0458 14.667 16.2178 14.0941 16.2178C13.9795 16.2178 13.9222 16.1605 13.8649 16.1605C13.7503 16.1605 13.5784 16.2178 13.4638 16.2178C13.4065 16.2178 12.3752 16.0458 12.0314 16.0458C11.9741 15.4155 11.9168 15.2436 11.9168 14.7278C11.9168 14.6132 11.6304 13.9255 11.6304 13.6963C11.6304 12.9513 11.3439 12.4928 11.3439 11.8625C11.3439 11.6332 11.5158 11.5186 11.5731 11.5186C12.3179 11.5186 12.8909 10.7736 13.0055 10.7736C13.693 10.7736 14.7243 11.7479 14.9535 12.0917C15.4119 12.8367 16.214 14.2693 17.1307 14.7851C17.3026 15.0143 19.1934 16.5043 19.1934 17.1347C19.1934 17.2493 18.9069 17.2493 18.9069 17.2493Z" fill="#141414"/>
<path d="M41.1387 17.4785V3.78224H44.4618V14.2693H51.7957V17.4785H41.1387Z" fill="#141414"/>
<path d="M55.5195 17.4785V3.78224H66.6922V6.99141H58.9V8.93983H65.2598V12.0344H58.9V14.2693H66.6922V17.4785H55.5195Z" fill="#141414"/>
<path d="M81.3595 10.659C81.3595 12.8367 79.526 14.5559 77.5207 14.5559C75.5153 14.5559 73.6819 12.8367 73.6819 10.659C73.6819 8.48138 75.5153 6.76218 77.5207 6.76218C79.526 6.76218 81.3595 8.48138 81.3595 10.659ZM84.7972 10.659C84.7972 6.64757 81.5314 3.55301 77.5207 3.55301C73.4527 3.55301 70.2441 6.64757 70.2441 10.659C70.2441 14.6705 73.51 17.765 77.5207 17.765C81.5887 17.765 84.7972 14.6705 84.7972 10.659Z" fill="#141414"/>
<path d="M97.0598 8.65329C97.0598 9.5702 96.6015 10.3152 95.1691 10.3152H91.7886V7.04871H95.1691C96.6015 7.04871 97.0598 7.73639 97.0598 8.65329ZM100.383 8.65329C100.383 5.90258 98.3776 3.83954 95.341 3.83954H88.4082V17.5358H91.7886V13.5244H95.3983C98.3776 13.5244 100.383 11.3467 100.383 8.65329Z" fill="#141414"/>
<path d="M114.191 10.659C114.191 12.8367 112.357 14.5559 110.352 14.5559C108.347 14.5559 106.513 12.8367 106.513 10.659C106.513 8.48138 108.347 6.76218 110.352 6.76218C112.357 6.76218 114.191 8.48138 114.191 10.659ZM117.686 10.659C117.686 6.64757 114.42 3.55301 110.409 3.55301C106.341 3.55301 103.133 6.64757 103.133 10.659C103.133 14.6705 106.399 17.765 110.409 17.765C114.42 17.765 117.686 14.6705 117.686 10.659Z" fill="#141414"/>
<path d="M121.582 17.4785V3.78224H124.962V14.2693H132.296V17.4785H121.582Z" fill="#141414"/>
<path d="M146.219 10.659C146.219 12.6648 144.73 14.2693 142.266 14.2693H139.344V7.04871H142.266C144.73 7.04871 146.219 8.65329 146.219 10.659ZM149.6 10.659C149.6 7.04871 146.792 3.83954 142.323 3.83954H136.078V17.5358H142.323C146.735 17.4785 149.6 14.2693 149.6 10.659Z" fill="#141414"/>
<path d="M48.6444 32.149C49.1601 33.2378 49.6757 34.2693 50.1914 35.2436H50.2487C50.879 34.1547 51.4519 33.0086 52.0249 31.8625L54.1448 27.5072C55.1761 25.4441 55.8064 24.1834 55.8637 23.1519C56.6085 23.2092 57.1242 23.2092 57.5825 23.2092C58.1555 23.2092 58.9003 23.2092 59.5879 23.1519C59.7025 23.2665 59.7025 23.6103 59.5879 23.7249L59.1295 23.7822C57.6971 23.9542 57.5252 24.3553 57.5252 25.9599C57.5825 28.3668 57.5825 32.5501 57.7544 35.8739C57.8117 37.0201 57.8117 37.5931 58.843 37.7077L59.5879 37.7651C59.7025 37.8797 59.7025 38.2235 59.5306 38.3381C58.6139 38.2808 57.6398 38.2808 56.8377 38.2808C56.0356 38.2808 55.0042 38.2808 54.0875 38.3381C53.9156 38.2235 53.9156 37.8797 54.0302 37.7651L54.6605 37.7077C55.7491 37.5931 55.7491 37.2493 55.7491 35.7593L55.6918 26.3037H55.6345C55.4626 26.533 54.6032 28.3668 54.1448 29.2837L52.1395 33.2378C51.1081 35.2436 50.0768 37.3639 49.6757 38.3954C49.6184 38.4527 49.5612 38.51 49.4466 38.51C49.3893 38.51 49.2747 38.51 49.2174 38.3954C48.8163 37.192 47.7277 34.957 47.212 33.8682L45.1494 29.4556C44.691 28.4241 44.1754 27.2206 43.717 26.1891H43.6597C43.5451 27.6218 43.4878 28.9398 43.4305 30.2579C43.3732 31.6332 43.2586 33.6963 43.2586 35.5874C43.2586 37.2493 43.3732 37.6504 44.29 37.7077L45.1494 37.7651C45.3213 37.8797 45.264 38.2808 45.1494 38.3381C44.4045 38.2808 43.4878 38.2808 42.6284 38.2808C41.8835 38.2808 41.0814 38.2808 40.3366 38.3381C40.222 38.2235 40.1647 37.8797 40.2793 37.7651L40.7949 37.7077C41.7689 37.5931 42.0554 37.4212 42.2273 35.8166C42.3419 34.3267 42.4565 33.0659 42.6284 30.831C42.743 28.9398 42.8576 26.9914 42.8576 25.788C42.9149 24.3553 42.743 24.0688 41.3106 23.8395L40.9668 23.7822C40.8522 23.6676 40.8522 23.3238 41.0814 23.2092C41.7689 23.2665 42.2846 23.2665 42.8576 23.2665C43.3732 23.2665 44.0035 23.2665 44.7483 23.2092C44.6337 24.0688 45.2067 25.5014 45.9515 26.9341L48.6444 32.149Z" fill="#141414"/>
<path d="M76.5476 28.9398C76.5476 27.5072 76.4903 24.9284 76.0892 24.2407C75.9173 23.9542 75.5162 23.7822 74.9433 23.7822L74.3703 23.7249C74.2557 23.553 74.2557 23.2665 74.4276 23.1519C75.2871 23.2092 76.1465 23.2092 77.0059 23.2092C77.98 23.2092 78.5529 23.2092 79.4124 23.1519C79.5842 23.2665 79.5842 23.553 79.4696 23.7249L78.8967 23.7822C78.3237 23.8395 77.8654 24.0115 77.7508 24.3553C77.407 25.1003 77.407 27.7364 77.407 28.9971V31.5759C77.407 33.5817 77.0632 35.6447 75.8027 37.0201C74.8287 38.1089 73.1671 38.682 71.4483 38.682C69.9013 38.682 68.297 38.3954 67.2084 37.4212C66.0052 36.447 65.4322 34.7851 65.4322 32.0344V26.6476C65.4322 24.298 65.3749 23.8969 64.0571 23.7822L63.4842 23.7249C63.3696 23.6103 63.3696 23.2665 63.5415 23.1519C64.6874 23.2092 65.4322 23.2092 66.3489 23.2092C67.2657 23.2092 68.0105 23.2092 69.1564 23.1519C69.271 23.2092 69.3283 23.6103 69.2137 23.7249L68.6981 23.7822C67.3803 23.8969 67.323 24.298 67.323 26.6476V31.5186C67.323 35.1863 68.4689 37.5931 71.9639 37.5931C75.2871 37.5931 76.4903 35.0143 76.4903 31.5759L76.5476 28.9398Z" fill="#141414"/>
<path d="M87.0888 38.5673C85.1981 38.5673 83.9949 37.9943 83.5365 37.7077C83.25 37.192 82.9635 35.5874 82.9062 34.4986C83.0208 34.3266 83.3646 34.2693 83.4219 34.4413C83.7657 35.5874 84.6824 37.8223 87.318 37.8223C89.2088 37.8223 90.1828 36.5616 90.1828 35.1862C90.1828 34.212 89.9536 33.0659 88.292 31.9771L86.1148 30.5444C84.9689 29.7994 83.6511 28.4814 83.6511 26.6476C83.6511 24.4699 85.3127 22.7507 88.292 22.7507C88.9796 22.7507 89.839 22.8653 90.412 23.0373C90.6985 23.0946 91.0422 23.1519 91.2141 23.1519C91.4433 23.7249 91.6152 24.9857 91.6152 25.9026C91.5006 26.0172 91.1568 26.1318 91.0422 25.9599C90.7558 24.8711 90.1255 23.3811 87.9483 23.3811C85.7137 23.3811 85.2554 24.8711 85.2554 25.9026C85.2554 27.2206 86.344 28.1375 87.2034 28.7106L89.0369 29.8567C90.4693 30.7163 91.9017 32.0344 91.9017 34.212C91.959 36.8481 90.0682 38.5673 87.0888 38.5673Z" fill="#141414"/>
<path d="M98.3198 26.5903C98.3198 24.2407 98.2625 23.8969 96.9447 23.7249L96.6009 23.6676C96.4863 23.553 96.4863 23.1519 96.6582 23.0946C97.6322 23.1519 98.4344 23.1519 99.3511 23.1519H103.648C105.081 23.1519 106.456 23.1519 106.742 23.0946C106.857 23.4957 107.029 25.1003 107.086 26.1318C106.971 26.2464 106.628 26.3037 106.513 26.1891C106.169 25.1003 105.94 24.298 104.794 24.0115C104.336 23.8969 103.591 23.8969 102.617 23.8969H100.841C100.153 23.8969 100.153 23.9542 100.153 24.8138V29.341C100.153 29.9714 100.211 29.9713 100.898 29.9713H102.216C103.19 29.9713 103.877 29.914 104.164 29.8567C104.45 29.7421 104.622 29.6275 104.737 29.0544L104.909 28.1375C105.023 28.0229 105.424 28.0229 105.482 28.1375C105.482 28.7106 105.367 29.5702 105.367 30.4298C105.367 31.2321 105.482 32.0917 105.482 32.6075C105.367 32.7794 105.023 32.7794 104.909 32.6075L104.68 31.7479C104.565 31.3467 104.45 31.0029 103.992 30.8883C103.648 30.7736 103.133 30.7736 102.216 30.7736H100.898C100.211 30.7736 100.153 30.7736 100.153 31.404V34.6132C100.153 35.8166 100.211 36.6189 100.612 36.9628C100.898 37.2493 101.356 37.4785 103.362 37.4785C105.138 37.4785 105.768 37.3639 106.284 37.1347C106.685 36.9054 107.315 36.1032 107.888 34.957C108.06 34.8424 108.347 34.8997 108.461 35.1289C108.289 35.9312 107.716 37.6504 107.43 38.2808C105.367 38.2235 103.362 38.2235 101.356 38.2235H99.2938C98.3198 38.2235 97.5176 38.2235 96.1998 38.2808C96.0852 38.2235 96.028 37.8224 96.1425 37.7077L96.8874 37.6504C98.2052 37.5358 98.3198 37.192 98.3198 34.7851V26.5903Z" fill="#141414"/>
<path d="M124.676 28.9398C124.676 27.5072 124.619 24.9284 124.218 24.2407C124.046 23.9542 123.645 23.7822 123.072 23.7822L122.499 23.7249C122.385 23.553 122.385 23.2665 122.557 23.1519C123.416 23.2092 124.275 23.2092 125.135 23.2092C126.109 23.2092 126.682 23.2092 127.541 23.1519C127.713 23.2665 127.713 23.553 127.599 23.7249L127.026 23.7822C126.453 23.8395 125.994 24.0115 125.88 24.3553C125.536 25.1003 125.536 27.7364 125.536 28.9971V31.5759C125.536 33.5817 125.192 35.6447 123.932 37.0201C122.958 38.1089 121.296 38.682 119.577 38.682C118.03 38.682 116.426 38.3954 115.337 37.4212C114.134 36.447 113.561 34.7851 113.561 32.0344V26.6476C113.561 24.298 113.504 23.8969 112.186 23.7822L111.613 23.7249C111.498 23.6103 111.498 23.2665 111.67 23.1519C112.816 23.2092 113.561 23.2092 114.478 23.2092C115.395 23.2092 116.139 23.2092 117.285 23.1519C117.4 23.2092 117.457 23.6103 117.343 23.7249L116.77 23.7822C115.452 23.8969 115.395 24.298 115.395 26.6476V31.5186C115.395 35.1863 116.54 37.5931 119.978 37.5931C123.301 37.5931 124.505 35.0143 124.505 31.5759L124.676 28.9398Z" fill="#141414"/>
<path d="M138.999 32.149C139.515 33.2378 140.031 34.2693 140.546 35.2436H140.604C141.234 34.1547 141.807 33.0086 142.38 31.8625L144.5 27.5072C145.531 25.4441 146.161 24.1834 146.218 23.1519C146.963 23.2092 147.479 23.2092 147.937 23.2092C148.51 23.2092 149.255 23.2092 149.943 23.1519C150.057 23.2665 150.057 23.6103 149.943 23.7249L149.484 23.7822C148.052 23.9542 147.88 24.3553 147.88 25.9599C147.937 28.3668 147.937 32.5501 148.109 35.8739C148.167 37.0201 148.167 37.5931 149.198 37.7077L149.943 37.7651C150.057 37.8797 150.057 38.2235 149.885 38.3381C148.969 38.2808 147.995 38.2808 147.193 38.2808C146.39 38.2808 145.359 38.2808 144.442 38.3381C144.27 38.2235 144.27 37.8797 144.385 37.7651L145.073 37.7077C146.161 37.5931 146.161 37.2493 146.161 35.7593L146.104 26.3037H146.047C145.875 26.533 145.015 28.3668 144.557 29.2837L142.552 33.2378C141.52 35.2436 140.489 37.3639 140.088 38.3954C140.031 38.4527 139.973 38.51 139.859 38.51C139.801 38.51 139.687 38.51 139.629 38.3954C139.228 37.192 138.14 34.957 137.624 33.8682L135.562 29.4556C135.103 28.4241 134.587 27.2206 134.129 26.1891H134.072C133.957 27.6218 133.9 28.9398 133.843 30.2579C133.785 31.6332 133.671 33.6963 133.671 35.5874C133.671 37.2493 133.785 37.6504 134.702 37.7077L135.562 37.7651C135.733 37.8797 135.676 38.2808 135.562 38.3381C134.759 38.2808 133.9 38.2808 133.04 38.2808C132.296 38.2808 131.494 38.2808 130.749 38.3381C130.634 38.2235 130.577 37.8797 130.691 37.7651L131.207 37.7077C132.181 37.5931 132.468 37.4212 132.639 35.8166C132.754 34.3267 132.869 33.0659 133.04 30.831C133.155 28.9398 133.27 26.9914 133.27 25.788C133.327 24.3553 133.155 24.0688 131.723 23.8395L131.379 23.7822C131.264 23.6676 131.264 23.3238 131.494 23.2092C132.181 23.2665 132.697 23.2665 133.27 23.2665C133.785 23.2665 134.416 23.2665 135.16 23.2092C135.046 24.0688 135.619 25.5014 136.364 26.9341L138.999 32.149Z" fill="#141414"/>
</g>
<defs>
<clipPath id="clip0_2281_258">
<rect width="150" height="40" fill="white"/>
</clipPath>
</defs>
</svg>
